<?xml version="1.0" encoding="UTF-8" standalone="no"?>
<!-- Created with Inkscape (http://www.inkscape.org/) -->

<svg
   width="2048mm"
   height="2048mm"
   viewBox="0 0 2048 2048"
   version="1.1"
   id="svg1"
   inkscape:export-filename="logo.svg"
   inkscape:export-xdpi="25.4"
   inkscape:export-ydpi="25.4"
   inkscape:version="1.4 (86a8ad7, 2024-10-11)"
   sodipodi:docname="original-logo.svg"
   xmlns:inkscape="http://www.inkscape.org/namespaces/inkscape"
   xmlns:sodipodi="http://sodipodi.sourceforge.net/DTD/sodipodi-0.dtd"
   xmlns="http://www.w3.org/2000/svg"
   xmlns:svg="http://www.w3.org/2000/svg">
  <sodipodi:namedview
     id="namedview1"
     pagecolor="#ffffff"
     bordercolor="#000000"
     borderopacity="0.25"
     inkscape:showpageshadow="2"
     inkscape:pageopacity="0.0"
     inkscape:pagecheckerboard="0"
     inkscape:deskcolor="#d1d1d1"
     inkscape:document-units="mm"
     inkscape:zoom="0.028284271"
     inkscape:cx="-8591.3474"
     inkscape:cy="12727.922"
     inkscape:window-width="3072"
     inkscape:window-height="1706"
     inkscape:window-x="-6"
     inkscape:window-y="380"
     inkscape:window-maximized="1"
     inkscape:current-layer="layer1" />
  <defs
     id="defs1" />
  <g
     inkscape:label="Layer 1"
     inkscape:groupmode="layer"
     id="layer1">
    <path
       style="font-size:604.219px;font-family:Monoton;-inkscape-font-specification:Monoton;stroke-width:186.596"
       d="m 1577.3134,647.89142 -65.6002,42.64023 c -53.9381,-78.72037 -123.9118,-141.04071 -209.9211,-186.96095 -85.2804,-46.64911 -177.8498,-69.97367 -277.708,-69.97367 -107.14682,0 -205.9117,26.60458 -296.29439,79.81372 -90.3827,52.48029 -162.17858,123.91175 -215.38773,214.29444 -52.4803,90.38267 -78.72042,189.14756 -78.72042,296.29481 0,107.1472 26.24012,205.9122 78.72042,296.2947 53.20915,90.3828 125.00503,162.1787 215.38773,215.3878 90.38269,52.4804 189.14757,78.7205 296.29439,78.7205 99.8582,0 192.7921,-23.3246 278.8014,-69.9738 86.0092,-46.6491 155.983,-109.6983 209.921,-189.1476 l 64.5069,44.8268 c -61.2269,90.3828 -140.6761,161.8142 -238.3478,214.2946 -96.9427,52.4802 -201.9032,78.7203 -314.8815,78.7203 -120.9957,0 -232.88075,-29.8846 -335.65459,-89.6538 C 585.65564,1543.7003 504.38414,1462.4289 444.61496,1359.655 384.84576,1256.8811 354.96118,1144.9961 354.96118,1024 c 0,-120.99613 29.88458,-232.88117 89.65378,-335.65502 59.76918,-102.77387 141.04068,-184.04537 243.81455,-243.81456 102.77384,-59.76922 214.65889,-89.65381 335.65459,-89.65381 112.9783,0 217.9388,26.24013 314.8815,78.72042 97.6717,52.48024 177.1209,123.9117 238.3478,214.29439 z m 131.2007,-87.46708 -65.6002,42.6402 C 1574.398,502.47736 1485.473,423.02808 1376.1392,364.71667 c -108.605,-59.04027 -225.9567,-88.56043 -352.0551,-88.56043 -101.31565,0 -198.25834,19.6801 -290.82768,59.04031 C 640.68705,374.55673 560.87333,427.76588 493.81521,494.82399 427.486,561.1532 374.64129,640.6025 335.28107,733.17187 295.92087,825.74123 276.24078,922.6839 276.24078,1024 c 0,101.3161 19.68009,198.2588 59.04029,290.8281 39.36022,92.5693 92.20493,172.383 158.53414,239.4412 67.05812,66.3292 146.87184,119.174 239.44121,158.5341 92.56934,39.3602 189.51203,59.0403 290.82768,59.0403 126.8273,0 244.5435,-29.5202 353.1484,-88.5605 108.605,-59.0402 197.1655,-138.854 265.6814,-239.4412 l 63.4136,47.0137 c -75.8048,110.7916 -173.8409,198.6232 -294.1081,263.4945 -119.5384,64.1426 -248.9168,96.214 -388.1353,96.214 -149.42255,0 -287.54769,-36.8092 -414.37498,-110.4272 C 482.88182,1665.7898 382.29466,1565.2026 307.9476,1438.3753 234.32945,1311.548 197.52039,1173.423 197.52039,1024 c 0,-149.42297 36.80906,-287.54812 110.42721,-414.3754 74.34706,-126.82734 174.93422,-227.05007 301.76152,-300.66822 126.82729,-74.34699 264.95243,-111.52052 414.37498,-111.52052 139.9475,0 270.0547,32.80015 390.3219,98.40048 120.2674,64.87142 218.3033,153.06743 294.1081,264.588 z m 129.014,-89.65377 -65.6003,42.64019 C 1688.8341,391.68571 1581.3225,295.47191 1449.3928,224.76933 1318.1923,154.06676 1176.4227,118.71544 1024.0841,118.71544 c -122.45352,0 -239.8052,24.05344 -352.05468,72.16035 C 560.5089,238.25385 464.29506,302.39637 383.38799,383.30344 302.48091,464.2105 237.97392,560.78877 189.86701,673.03825 142.48899,784.55877 118.79999,901.54601 118.79999,1024 c 0,122.454 23.689,239.8056 71.06702,352.0551 48.10691,111.5205 112.6139,207.7344 193.52098,288.6414 80.90707,80.9072 177.12091,145.4141 288.64143,193.5209 112.24948,47.3782 229.60116,71.0671 352.05468,71.0671 152.3386,0 294.4726,-35.7158 426.4022,-107.1473 131.9295,-71.4314 239.4411,-168.0096 322.5348,-289.7347 l 63.4137,48.107 c -90.3828,131.2006 -207.0055,235.4323 -349.8684,312.6949 -142.8629,76.5336 -297.0238,114.8005 -462.4823,114.8005 -133.38688,0 -260.94309,-26.24 -382.66814,-78.7204 C 520.41978,1877.5331 415.82371,1807.9239 327.6277,1720.4569 240.16061,1632.2607 170.1869,1527.6647 117.70665,1406.6686 65.955301,1284.9435 40.079636,1157.3873 40.079636,1024 c 0,-133.38735 25.875665,-260.57912 77.627014,-381.57526 C 170.1869,520.69969 240.16061,416.10361 327.6277,328.63648 415.82371,240.4405 520.41978,170.46683 641.41596,118.71544 763.14101,66.235186 890.69722,39.995055 1024.0841,39.995055 c 166.1875,0 320.7127,38.631306 463.5756,115.893905 142.863,77.26264 259.4858,182.22315 349.8684,314.88161 z"
       id="text1"
       aria-label="CODE"
       sodipodi:nodetypes="cccsccsccsscccssssssscccccsssssscssscccsccsccscccccscscscscsscccscccscscssc" />
    <path
       d="m 1036.5274,853.72796 v 22.72388 H 804.55336 V 1096.7483 H 781.82928 V 876.45184 H 759.10536 V 1096.7483 H 736.38143 V 876.45184 H 713.65736 V 1096.7483 H 690.9334 V 853.72796 Z m 0,-45.44808 v 22.72403 h -345.594 v -22.72403 z m 0,-45.44792 V 785.556 H 690.9334 V 762.83196 Z M 863.88811,1148.8242 q 62.49092,0 62.49092,-27.7737 0,-16.0963 -14.51791,-23.3552 -14.51819,-7.2592 -36.9267,-7.2592 -34.71695,0 -55.23173,8.2059 v -22.7239 q 27.45808,-6.6279 55.54746,-6.6279 20.19906,0 35.97968,4.7342 16.096,4.7341 26.8268,16.7273 11.0463,11.9933 11.0463,30.2988 0,25.2488 -23.9863,37.8733 -23.67083,12.6243 -61.22852,12.6243 -58.38789,0 -89.00228,-18.9365 l 18.30549,-13.8869 q 20.51478,10.0995 70.69679,10.0995 z m 0,45.448 q 46.71043,0 77.32462,-19.2524 30.6143,-19.2522 30.6143,-53.9693 0,-35.3485 -26.5114,-54.2853 -26.51121,-19.2522 -64.38462,-19.2522 -29.03623,0 -61.22832,7.2592 v -23.9866 q 38.81997,-4.734 61.54404,-4.734 47.3417,0 80.1651,25.5644 33.1393,25.2489 33.1393,69.4345 0,44.501 -37.2422,70.3811 -37.24223,25.5645 -93.42082,25.5645 -80.1651,0 -124.35067,-35.9796 l 17.98992,-13.8869 q 37.55768,27.1426 106.36075,27.1426 z m 0,45.4478 q 65.33132,0 109.20132,-32.1924 44.18567,-32.5078 44.18567,-86.4771 0,-36.611 -18.93687,-63.7535 -18.6209,-27.1427 -47.9727,-40.0827 -29.3518,-12.94 -64.70036,-12.94 -35.03267,0 -65.96248,5.3653 v -23.03947 q 36.61083,-4.10304 66.59392,-4.10304 41.97612,0 77.00892,17.67421 35.3484,17.6743 55.86317,49.5511 20.8304,31.8767 20.8304,71.3281 0,41.9761 -23.9866,74.7995 -23.67067,32.508 -63.75337,49.551 -39.76702,17.0429 -88.37102,17.0429 -48.60401,0 -90.26471,-13.8866 -41.66055,-13.887 -69.74994,-39.1358 l 17.67421,-14.2025 q 25.24894,21.4614 62.17534,33.139 37.24211,11.362 80.1651,11.362 z m 0,45.448 q 40.71384,0 77.00892,-11.6776 36.611,-11.9932 63.43777,-33.1391 26.8271,-21.1459 42.6077,-52.0759 15.7806,-30.9298 15.7806,-67.2249 0,-35.9797 -14.518,-66.9096 -14.5182,-30.93 -38.5046,-51.1289 -23.98657,-20.51491 -54.60097,-31.87696 -30.2985,-11.36186 -62.49076,-11.36186 -16.41176,0 -27.45823,0.94678 -11.04632,0.63114 -24.93307,2.84047 -13.88705,1.8937 -20.51478,2.52497 v -23.35532 q 30.92981,-4.41851 74.16851,-4.41851 37.55753,0 72.27463,13.2557 34.71727,12.94007 61.22897,36.2952 26.5113,23.03963 42.2919,57.75693 15.7805,34.7173 15.7805,75.4311 0,41.0293 -17.6743,76.3777 -17.3585,35.0328 -47.3417,59.3349 -29.98317,23.9863 -70.69677,37.5577 -40.39847,13.5713 -85.84632,13.5713 -59.01918,0 -110.1482,-18.6211 -50.8133,-18.3055 -85.21488,-51.4446 l 18.30545,-13.5711 q 31.24546,29.0359 77.32461,45.1322 46.39486,15.7805 99.73302,15.7805 z M 1262.1892,958.82626 q 0,-41.0294 28.0894,-61.54409 28.4049,-20.83033 72.906,-20.83033 58.3881,0 89.0023,18.93664 l -18.3053,13.88699 q -20.5147,-10.0996 -70.697,-10.0996 -35.3482,0 -56.8099,14.20247 -21.4614,13.88685 -21.4614,45.44792 v 136.97534 q 0,13.8869 4.4185,23.9863 4.734,9.7839 11.6773,15.4651 7.2592,5.6808 18.937,8.8369 11.9932,2.8407 22.7241,3.7874 11.0463,0.9469 26.8267,0.9469 62.491,0 62.491,-27.7737 0,-16.0963 -12.6244,-23.3552 -12.6244,-7.2592 -32.5079,-7.2592 -45.448,0 -84.5837,17.6742 v -22.7239 q 39.4512,-16.0962 84.8992,-16.0962 29.0363,0 48.2885,12.6246 19.2523,12.3086 19.2523,39.1357 0,25.2488 -23.9865,37.8733 -23.6708,12.6243 -61.2285,12.6243 -18.6212,0 -33.7703,-1.8936 -15.1494,-2.2094 -29.3519,-7.2592 -13.8869,-5.3653 -23.3552,-13.5711 -9.4683,-8.5215 -15.1493,-21.7773 -5.681,-13.571 -5.681,-31.2453 z m -45.448,0 q 0,-41.34504 19.8835,-70.69677 20.199,-29.66739 52.7071,-43.23874 32.5077,-13.88684 73.8528,-13.88684 80.1653,0 124.3509,35.9796 l -17.99,13.88699 q -37.5576,-27.14254 -106.3609,-27.14254 -53.9694,0 -89.0021,27.45802 -34.7172,27.14257 -34.7172,77.64028 v 136.97534 q 0,26.5112 9.7838,46.0793 10.0996,19.5676 28.405,30.9296 18.3056,11.0465 41.0294,16.4118 22.7241,5.0499 50.8134,5.0499 46.7105,0 77.3246,-19.2524 30.6145,-19.2522 30.6145,-53.9693 0,-35.3485 -25.5647,-54.2853 -25.5643,-19.2522 -62.1753,-19.2522 -46.3949,0 -87.4241,16.7275 v -23.9864 q 42.6074,-14.2025 87.7395,-14.2025 46.0793,0 77.956,25.5644 32.1925,25.2489 32.1925,69.4345 0,44.501 -37.2422,70.3811 -37.2422,25.5645 -93.4208,25.5645 -32.1923,0 -59.3347,-6.9433 -27.1427,-7.2592 -48.2887,-21.4617 -21.1458,-14.2024 -33.139,-37.8734 -11.9933,-23.6708 -11.9933,-54.9161 z m -45.448,0 q 0,-41.0294 15.1495,-74.16853 15.1491,-33.45477 41.3449,-54.60059 26.1957,-21.46161 60.913,-32.82364 34.7171,-11.6775 74.484,-11.6775 48.6042,0 90.2647,13.88683 41.6607,13.88685 69.75,39.13572 l -17.6741,14.20247 q -25.2489,-21.46148 -62.491,-32.82349 -36.9264,-11.67765 -79.8496,-11.67765 -35.0326,0 -65.647,10.09961 -30.6143,9.78396 -53.9693,28.40497 -23.0398,18.621 -36.2953,47.65723 -13.2557,28.72062 -13.2557,64.38457 v 136.97534 q 0,35.6639 13.5713,63.7535 13.8869,27.7736 37.8732,45.1321 24.302,17.3586 55.5473,26.1959 31.5613,8.8369 68.4878,8.8369 65.3314,0 109.2014,-32.1924 44.1856,-32.5078 44.1856,-86.4771 0,-36.611 -18.9367,-63.7535 -18.6212,-27.1427 -47.9728,-40.0827 -29.3518,-12.94 -64.7002,-12.94 -46.3949,0 -89.0023,14.8337 v -23.03961 q 44.5011,-13.5713 89.6334,-13.5713 41.9763,0 77.0091,17.67421 35.3484,17.6743 55.863,49.5511 20.8302,31.8767 20.8302,71.3281 0,41.9761 -23.9862,74.7995 -23.6709,32.508 -63.7533,49.551 -39.7672,17.0429 -88.3712,17.0429 -41.3449,0 -77.0091,-10.7307 -35.3483,-10.7306 -62.8064,-30.9298 -27.1427,-20.5147 -42.9232,-52.3915 -15.465,-32.1922 -15.465,-72.5903 z m -45.4479,0 q 0,-49.86643 18.6209,-91.21148 18.9368,-41.66067 51.1291,-69.11886 32.1923,-27.7737 75.4312,-42.92311 43.2384,-15.46488 92.1581,-15.46488 59.0194,0 109.8327,18.62099 51.129,18.30552 85.5305,51.44465 l -18.3053,13.57137 q -31.2457,-29.03627 -77.6403,-44.8168 -46.0793,-16.09618 -99.4176,-16.09618 -44.5011,0 -83.3212,13.25571 -38.8203,12.93992 -68.1719,37.24201 -29.3519,23.98645 -46.3948,61.54409 -16.7274,37.55781 -16.7274,83.95249 v 136.97534 q 0,35.9795 11.362,66.9095 11.3619,30.614 31.5611,53.0226 20.1991,22.4083 47.6571,38.1888 27.7738,15.7806 60.5974,23.6709 33.1392,7.5746 69.75,7.5746 40.7139,0 77.009,-11.6776 36.611,-11.9932 63.4379,-33.1391 26.827,-21.1459 42.6074,-52.0759 15.7807,-30.9298 15.7807,-67.2249 0,-35.9797 -15.1495,-66.9096 -15.1494,-30.93 -40.0826,-51.1289 -24.6175,-20.51491 -56.1787,-31.87696 -31.5611,-11.36186 -65.0158,-11.36186 -47.9729,0 -89.6334,14.20249 v -23.35532 q 43.2387,-12.30878 90.8958,-12.30878 38.8202,0 74.4841,13.2557 35.9797,12.94007 63.1224,36.2952 27.4579,23.03963 43.8698,57.75693 16.4116,34.7173 16.4116,75.4311 0,41.0293 -17.674,76.3777 -17.3586,35.0328 -47.3416,59.3349 -29.9832,23.9863 -70.6969,37.5577 -40.3983,13.5713 -85.8462,13.5713 -50.8134,0 -94.9988,-14.2025 -43.87,-14.2025 -77.3247,-40.7138 -33.1392,-26.5114 -52.3914,-66.9095 -18.9367,-40.7139 -18.9367,-90.2647 z m 852.7805,-195.9943 h 23.671 l -128.7694,522.65164 h -23.6707 z m -177.3732,90.896 -5.3655,22.72388 h -169.7987 v -22.72388 z m 10.7307,-45.44808 -5.3653,22.72403 h -180.5296 v -22.72403 z m 10.0996,-45.44792 -4.4186,22.72404 h -191.5759 v -22.72404 z m 16.0962,0 h 23.3552 l -128.7694,522.65164 h -23.355 z m 46.7103,0 h 23.6708 l -128.7691,522.65164 h -23.6708 z m 47.026,0 h 23.3552 l -128.7691,522.65164 h -23.3552 z"
       id="text2"
       style="font-size:959.026px;font-family:Monoton;-inkscape-font-specification:Monoton;stroke-width:53.8644"
       aria-label="567 " />
  </g>
</svg>
