<?xml version="1.0" encoding="UTF-8" standalone="no"?>
<!-- Created with Inkscape (http://www.inkscape.org/) -->

<svg
   width="2048mm"
   height="2048mm"
   viewBox="0 0 2048 2048"
   version="1.1"
   id="svg1"
   xmlns="http://www.w3.org/2000/svg"
   xmlns:svg="http://www.w3.org/2000/svg">
  <defs
     id="defs1" />
  <g
     id="layer1">
    <path
       style="font-size:604.219px;font-family:Monoton;-inkscape-font-specification:Monoton;stroke-width:50.3515"
       d="m 403.7019,446.67831 -17.4067,11.50612 q -15.93156,-23.6023 -41.59907,-37.17363 -25.37247,-13.86635 -55.17038,-13.86635 -48.38473,0 -82.60807,34.22334 -34.22334,34.22334 -34.22334,82.60806 0,48.38473 34.22334,82.60807 34.22334,34.22334 82.60807,34.22334 29.79791,0 55.17038,-13.86635 25.66751,-13.86636 41.59907,-37.46866 l 17.11167,12.39121 q -18.88185,27.73271 -48.97478,43.95929 -30.09294,16.22658 -64.90634,16.22658 -28.02774,0 -53.69524,-10.91606 -25.37248,-10.91607 -43.9593,-29.50288 -18.58681,-18.58682 -29.50288,-43.95929 -10.91606,-25.66751 -10.91606,-53.69525 0,-28.02773 10.91606,-53.40021 10.91607,-25.66751 29.50288,-44.25432 18.58682,-18.58682 43.9593,-29.50288 25.6675,-10.91607 53.69524,-10.91607 35.10843,0 65.20136,16.52162 30.09294,16.22658 48.97479,44.25432 z m 35.10842,-24.19237 -17.70172,11.50613 q -21.83214,-31.86311 -56.64554,-50.44993 -34.51837,-18.88184 -74.93731,-18.88184 -43.36924,0 -79.95281,21.5371 -36.58357,21.24208 -58.12067,57.82565 -21.24208,36.58357 -21.24208,79.9528 0,43.36924 21.24208,79.95281 21.5371,36.58357 58.12067,58.12067 36.58357,21.24208 79.95281,21.24208 40.41894,0 75.23234,-18.88185 34.8134,-18.88184 56.64553,-51.03998 l 17.4067,12.09618 q -24.78242,36.58357 -64.31628,57.82565 -39.23883,21.24207 -84.96829,21.24207 -48.97478,0 -90.57385,-24.19236 -41.59906,-24.19236 -65.79142,-65.79142 -24.19236,-41.59906 -24.19236,-90.57385 0,-48.97478 24.19236,-90.57384 24.19236,-41.59906 65.79142,-65.79142 41.59907,-24.19237 90.57385,-24.19237 45.72946,0 84.96829,21.24208 39.53386,21.24207 64.31628,57.82564 z m 35.40346,-23.6023 -17.70173,11.50612 q -27.73271,-40.71397 -71.98703,-64.31628 -43.95929,-23.89733 -94.99927,-23.89733 -41.00901,0 -78.47766,15.93156 -37.46866,15.93155 -64.61131,43.0742 -26.84762,26.84762 -42.77918,64.31628 -15.931555,37.46866 -15.931555,78.47766 0,41.00901 15.931555,78.47767 15.93156,37.46865 42.77918,64.6113 27.14265,26.84763 64.61131,42.77918 37.46865,15.93156 78.47766,15.93156 51.33501,0 95.2943,-23.89734 43.95929,-23.89733 71.692,-64.61131 l 17.11167,12.68624 q -30.68299,44.84438 -79.36275,71.10195 -48.38472,25.96253 -104.73522,25.96253 -60.48091,0 -111.81592,-29.79791 -51.33501,-30.09294 -81.42795,-81.42795 -29.797909,-51.33501 -29.797909,-111.81592 0,-60.4809 29.797909,-111.81591 30.09294,-51.33502 81.42795,-81.13293 51.33501,-30.09293 111.81592,-30.09293 56.64553,0 105.32528,26.55259 48.67975,26.25756 79.36275,71.39697 z m 34.8134,-24.19236 -17.70173,11.50612 q -33.63328,-49.26981 -87.0335,-77.8876 -53.10518,-28.6178 -114.7662,-28.6178 -49.56484,0 -94.99928,19.4719 -45.1394,19.17688 -77.8876,51.92507 -32.748199,32.7482 -52.220101,78.18264 -19.176872,45.1394 -19.176872,94.70424 0,49.56484 19.176872,94.99928 19.471902,45.13941 52.220101,77.8876 32.7482,32.7482 77.8876,52.2201 45.43444,19.17687 94.99928,19.17687 61.66102,0 115.06123,-28.91282 53.40022,-28.91282 87.0335,-78.18263 l 17.11167,12.98127 q -36.58357,53.10518 -94.40922,84.37823 -57.82564,30.97803 -124.79718,30.97803 -53.99027,0 -103.26008,-21.24208 Q 137.29088,747.31266 101.5924,711.9092 66.188942,676.21072 44.946868,627.23594 23.999823,577.96612 23.999823,523.97585 q 0,-53.99027 20.947045,-102.96505 21.242074,-49.26981 56.645532,-84.67327 35.69848,-35.69848 84.67327,-56.64553 49.26981,-21.24207 103.26008,-21.24207 67.26657,0 125.09221,31.27305 57.82565,31.27306 94.40922,84.9683 z m 212.71576,66.67651 q -34.22334,34.22334 -34.22334,82.60806 0,48.38473 34.22334,82.60807 34.22334,34.22334 82.60806,34.22334 48.38473,0 82.60807,-34.22334 34.22334,-34.22334 34.22334,-82.60807 0,-48.38472 -34.22334,-82.60806 -34.22334,-34.22334 -82.60807,-34.22334 -48.38472,0 -82.60806,34.22334 z M 677.19359,577.6711 q -10.91607,-25.66751 -10.91607,-53.69525 0,-28.02773 10.91607,-53.40021 10.91607,-25.66751 29.50288,-44.25432 18.58681,-18.58682 43.95929,-29.50288 25.66751,-10.91607 53.69524,-10.91607 28.02774,0 53.40022,10.91607 25.6675,10.91606 44.25432,29.50288 18.58681,18.58681 29.50288,44.25432 10.91607,25.37248 10.91607,53.40021 0,28.02774 -10.91607,53.69525 -10.91607,25.37247 -29.50288,43.95929 -18.58682,18.58681 -44.25432,29.50288 -25.37248,10.91606 -53.40022,10.91606 -28.02773,0 -53.69524,-10.91606 Q 725.28328,640.2172 706.69647,621.63039 688.10966,603.04357 677.19359,577.6711 Z M 666.27752,444.02305 q -21.24207,36.58357 -21.24207,79.9528 0,43.36924 21.24207,79.95281 21.53711,36.58357 58.12068,58.12067 36.58357,21.24208 79.9528,21.24208 43.36924,0 79.95281,-21.24208 36.58357,-21.5371 57.82565,-58.12067 21.5371,-36.58357 21.5371,-79.95281 0,-43.36923 -21.5371,-79.9528 -21.24208,-36.58357 -57.82565,-57.82565 -36.58357,-21.5371 -79.95281,-21.5371 -43.36923,0 -79.9528,21.5371 -36.58357,21.24208 -58.12068,57.82565 z M 647.98574,614.5497 q -24.19236,-41.59906 -24.19236,-90.57385 0,-48.97478 24.19236,-90.57384 24.19236,-41.59906 65.79142,-65.79142 41.59906,-24.19237 90.57384,-24.19237 48.97479,0 90.57385,24.19237 41.59906,24.19236 65.79142,65.79142 24.19236,41.59906 24.19236,90.57384 0,48.97479 -24.19236,90.57385 -24.19236,41.59906 -65.79142,65.79142 -41.59906,24.19236 -90.57385,24.19236 -48.97478,0 -90.57384,-24.19236 Q 672.1781,656.14876 647.98574,614.5497 Z M 618.48286,445.49819 q -15.93156,37.46866 -15.93156,78.47766 0,41.00901 15.93156,78.47767 15.93155,37.46865 42.77917,64.6113 27.14265,26.84763 64.61131,42.77918 37.46866,15.93156 78.47766,15.93156 41.00901,0 78.47767,-15.93156 37.46866,-15.93155 64.31628,-42.77918 27.14265,-27.14265 43.0742,-64.6113 15.93155,-37.46866 15.93155,-78.47767 0,-41.009 -15.93155,-78.47766 -15.93155,-37.46866 -43.0742,-64.31628 -26.84762,-27.14265 -64.31628,-43.0742 -37.46866,-15.93156 -78.47767,-15.93156 -41.009,0 -78.47766,15.93156 -37.46866,15.93155 -64.61131,43.0742 -26.84762,26.84762 -42.77917,64.31628 z m -7.37572,190.29358 q -29.79791,-51.33501 -29.79791,-111.81592 0,-60.4809 29.79791,-111.81591 30.09294,-51.33502 81.42795,-81.13293 51.33501,-30.09293 111.81591,-30.09293 60.48091,0 111.81592,30.09293 51.33501,29.79791 81.13292,81.13293 30.09296,51.33501 30.09296,111.81591 0,60.48091 -30.09296,111.81592 -29.79791,51.33501 -81.13292,81.42795 -51.33501,29.79791 -111.81592,29.79791 -60.4809,0 -111.81591,-29.79791 -51.33501,-30.09294 -81.42795,-81.42795 z M 579.24403,429.27161 q -19.17688,45.1394 -19.17688,94.70424 0,49.56484 19.17688,94.99928 19.4719,45.13941 52.22009,77.8876 32.7482,32.7482 77.88761,52.2201 45.43444,19.17687 94.99927,19.17687 49.56484,0 94.70425,-19.17687 45.43444,-19.4719 78.18263,-52.2201 32.74822,-32.74819 51.92512,-77.8876 19.4719,-45.43444 19.4719,-94.99928 0,-49.56484 -19.4719,-94.70424 -19.1769,-45.43444 -51.92512,-78.18264 Q 944.48969,318.34078 899.05525,299.1639 853.91584,279.692 804.351,279.692 q -49.56483,0 -94.99927,19.4719 -45.13941,19.17688 -77.88761,51.92507 -32.74819,32.7482 -52.22009,78.18264 z m -19.47191,197.96433 q -20.94704,-49.26982 -20.94704,-103.26009 0,-53.99027 20.94704,-102.96505 21.24208,-49.26981 56.64554,-84.67327 35.69848,-35.69848 84.67326,-56.64553 49.26981,-21.24207 103.26008,-21.24207 53.99028,0 102.96506,21.24207 49.26981,20.94705 84.67327,56.64553 35.69847,35.40346 56.64557,84.67327 21.242,48.97478 21.242,102.96505 0,53.99027 -21.242,103.26009 -20.9471,48.97478 -56.64557,84.67326 -35.40346,35.40346 -84.67327,56.3505 -48.97478,21.24208 -102.96506,21.24208 -53.99027,0 -103.26008,-21.24208 -48.97478,-20.94704 -84.67326,-56.3505 -35.40346,-35.69848 -56.64554,-84.67326 z m 681.51658,13.57132 V 407.14445 q 0,0 144.8592,0 35.1084,0 60.1859,34.51837 25.3724,34.22334 25.3724,82.31303 0,48.38473 -25.3724,82.60807 -25.0775,34.22334 -60.1859,34.22334 z m 21.2421,-21.24207 h 123.6171 q 26.2576,0 44.8444,-28.02774 18.8818,-28.02774 18.8818,-67.5616 0,-39.82889 -18.8818,-67.56159 -18.5868,-28.02774 -44.8444,-28.02774 h -123.6171 z m -42.4841,42.48414 h 166.1012 q 43.9593,0 75.5274,-40.41894 31.8631,-40.71398 31.8631,-97.65454 0,-37.46865 -14.7515,-69.33177 -14.4564,-31.86311 -39.2388,-50.15489 -24.4874,-18.58682 -53.4002,-18.58682 h -166.1012 z m -21.2421,21.24208 V 364.6603 h 187.3433 q 34.5184,0 64.3163,21.24207 29.7979,21.24208 47.2046,58.12068 17.7017,36.58357 17.7017,79.9528 0,43.07421 -17.7017,79.95281 -17.4067,36.8786 -47.2046,58.12067 -29.7979,21.24208 -64.3163,21.24208 z m -21.2421,21.24207 h 208.5854 q 40.4189,0 74.9373,-24.19236 34.8134,-24.19236 55.4654,-65.79142 20.652,-41.59906 20.652,-90.57385 0,-48.67975 -20.652,-90.27881 -20.652,-41.89409 -55.4654,-66.08645 -34.8134,-24.19237 -74.9373,-24.19237 h -208.5854 z m -21.2421,21.24208 V 322.17615 h 229.8275 q 46.0245,0 85.8534,27.14265 39.8289,26.84762 63.4312,73.46217 23.6023,46.61455 23.6023,101.19488 0,54.58033 -23.6023,101.19488 -23.6023,46.61456 -63.4312,73.75721 -39.8289,26.84762 -85.8534,26.84762 z m -21.242,21.24207 h 251.0695 q 38.6488,0 74.6423,-17.70173 35.9935,-17.70173 62.2511,-47.49964 26.2575,-29.7979 41.894,-71.10194 15.9316,-41.59906 15.9316,-86.73847 0,-45.1394 -15.9316,-86.44344 -15.6365,-41.30403 -41.894,-71.10194 -26.2576,-30.09294 -62.2511,-47.79467 -35.9935,-17.70172 -74.6423,-17.70172 h -251.0695 z m 251.0695,21.24207 H 1113.8363 V 279.692 h 272.3116 q 57.5306,0 107.3905,32.7482 49.8598,32.7482 79.3627,89.0987 29.7979,56.3505 29.7979,122.43695 0,49.56484 -17.7017,94.99928 -17.4067,45.13941 -46.6145,77.8876 -29.2079,32.7482 -69.3318,52.2201 -39.8289,19.17687 -82.9031,19.17687 z m 369.3761,0 h -21.2421 V 279.692 h 21.2421 z m -42.4842,0 h -21.2421 V 279.692 h 21.2421 z m -42.4841,0 h -21.2421 V 279.692 h 21.2421 z m 127.4524,-106.21037 h 225.9921 v 21.24208 h -225.9921 v 21.24207 h 225.9921 v 21.24208 h -225.9921 v 21.24207 h 225.9921 V 768.2597 H 1776.766 V 279.692 h 247.2342 v 21.24208 h -225.9921 v 21.24207 h 225.9921 v 21.24207 h -225.9921 v 21.24208 h 225.9921 v 21.24207 h -225.9921 v 84.9683 h 115.9463 v 21.24207 h -115.9463 v 21.24208 h 115.9463 v 21.24207 h -115.9463 v 21.24207 h 115.9463 v 21.24208 h -115.9463 z"
       id="text1"
       aria-label="CODE" />
    <path
       d="m 570.00798,1137.7605 v 33.7157 H 225.82629 v 326.8556 h -33.71576 v -326.8556 h -33.71576 v 326.8556 H 124.67902 V 1171.4762 H 90.963257 v 326.8556 H 57.247499 v -360.5713 z m 0,-67.4316 v 33.7158 H 57.247499 v -33.7158 z m 0,-67.4315 v 33.7158 H 57.247499 v -33.7158 z m -256.1461,572.6996 q 92.71833,0 92.71833,-41.2081 0,-23.882 -21.54062,-34.6523 -21.54062,-10.7703 -54.78811,-10.7703 -51.51018,0 -81.94802,12.1751 v -33.7157 q 40.73987,-9.8338 82.4163,-9.8338 29.96956,0 53.38328,7.0241 23.882,7.0241 39.80333,24.8185 16.3896,17.7945 16.3896,44.9544 0,37.4619 -35.58885,56.1929 -35.12059,18.731 -90.84524,18.731 -86.63077,0 -132.05339,-28.0965 l 27.15992,-20.604 q 30.43784,14.9847 104.89347,14.9847 z m 0,67.4316 q 69.30461,0 114.72723,-28.5648 45.42262,-28.5647 45.42262,-80.0749 0,-52.4467 -39.33505,-80.5432 -39.33505,-28.5647 -95.52798,-28.5647 -43.08125,0 -90.84524,10.7703 v -35.5889 q 57.59775,-7.0241 91.31351,-7.0241 70.24116,0 118.9417,37.9302 49.16882,37.462 49.16882,103.0204 0,66.0267 -55.25638,104.4252 -55.25639,37.9302 -138.60923,37.9302 -118.9417,0 -184.50012,-53.3833 l 26.69164,-20.604 q 55.72466,40.2716 157.80848,40.2716 z m 0,67.4315 q 96.9328,0 162.02295,-47.764 65.55841,-48.2323 65.55841,-128.3072 0,-54.3198 -28.09646,-94.5914 -27.62819,-40.2716 -71.17771,-59.4709 -43.54952,-19.1992 -95.99626,-19.1992 -51.97846,0 -97.86935,7.9606 v -34.184 q 54.31983,-6.0876 98.8059,-6.0876 62.2805,0 114.25896,26.2234 52.44673,26.2234 82.88457,73.5191 30.90611,47.2957 30.90611,105.83 0,62.2805 -35.58885,110.981 -35.12058,48.2323 -94.59144,73.5191 -59.00257,25.2868 -131.11683,25.2868 -72.11426,0 -133.92648,-20.604 -61.81223,-20.6041 -103.48865,-58.0661 l 26.22337,-21.0723 q 37.46195,31.8426 92.25006,49.1688 55.25638,16.8579 118.9417,16.8579 z m 0,67.4315 q 60.4074,0 114.25896,-17.3262 54.31983,-17.7944 94.12315,-49.1688 39.80333,-31.3744 63.21705,-77.2653 23.41372,-45.8908 23.41372,-99.7424 0,-53.3833 -21.54062,-99.2742 -21.54063,-45.8909 -57.12948,-75.8604 -35.58886,-30.4379 -81.01148,-47.2958 -44.95434,-16.8578 -92.71833,-16.8578 -24.35027,0 -40.73987,1.4048 -16.38961,0.9365 -36.99368,4.2145 -20.60408,2.8096 -30.43784,3.7462 v -34.6524 q 45.89089,-6.5558 110.04449,-6.5558 55.72465,0 107.23484,19.6675 51.51018,19.1993 90.84524,53.8516 39.33505,34.184 62.74877,85.6942 23.41372,51.5102 23.41372,111.9176 0,60.8757 -26.22337,113.3224 -25.75509,51.9785 -70.24116,88.0356 -44.48607,35.5888 -104.89347,55.7246 -59.93913,20.1358 -127.37064,20.1358 -87.56732,0 -163.42777,-27.6281 -75.392183,-27.16 -126.434094,-76.3288 l 27.159916,-20.1358 q 46.359167,43.0813 114.727228,66.9633 68.83634,23.4137 147.97472,23.4137 z m 590.96233,-484.1958 q 0,-60.8756 41.67642,-91.3135 42.1447,-30.9061 108.17137,-30.9061 86.6308,0 132.0534,28.0965 l -27.1599,20.6041 q -30.4379,-14.9848 -104.8935,-14.9848 -52.4467,0 -84.28938,21.0723 -31.84266,20.6041 -31.84266,67.4315 v 203.2311 q 0,20.6041 6.55584,35.5889 7.02412,14.5165 17.32616,22.9454 10.77031,8.429 28.09646,13.1117 17.79448,4.2145 33.71578,5.6193 16.3896,1.4048 39.8033,1.4048 92.7183,0 92.7183,-41.2081 0,-23.882 -18.7309,-34.6523 -18.731,-10.7703 -48.2323,-10.7703 -67.4315,0 -125.49754,26.2233 v -33.7157 q 58.53434,-23.882 125.96584,-23.882 43.0812,0 71.646,18.731 28.5647,18.2627 28.5647,58.066 0,37.4619 -35.5889,56.1929 -35.1205,18.731 -90.8452,18.731 -27.6282,0 -50.1054,-2.8096 -22.47713,-3.278 -43.54948,-10.7704 -20.60407,-7.9606 -34.6523,-20.1358 -14.04824,-12.6434 -22.47718,-32.3109 -8.42893,-20.1358 -8.42893,-46.3592 z m -67.43152,0 q 0,-61.3439 29.50129,-104.8934 29.96956,-44.0178 78.20182,-64.1536 48.23227,-20.6041 109.5762,-20.6041 118.9417,0 184.5001,53.3833 l -26.6916,20.6041 q -55.7247,-40.2716 -157.8085,-40.2716 -80.07491,0 -132.05337,40.7398 -51.51018,40.2716 -51.51018,115.1955 v 203.2311 q 0,39.3351 14.5165,68.3681 14.98479,29.033 42.1447,45.8909 27.15992,16.3896 60.87568,24.3503 33.71577,7.4924 75.39217,7.4924 69.3046,0 114.7272,-28.5648 45.4227,-28.5647 45.4227,-80.0749 0,-52.4467 -37.9303,-80.5432 -37.9302,-28.5647 -92.25,-28.5647 -68.8364,0 -129.71204,24.8185 v -35.5889 q 63.21704,-21.0723 130.18024,-21.0723 68.3681,0 115.6638,37.9302 47.764,37.462 47.764,103.0204 0,66.0267 -55.2564,104.4252 -55.2563,37.9302 -138.6092,37.9302 -47.764,0 -88.03558,-10.302 -40.2716,-10.7703 -71.64599,-31.8427 -31.37438,-21.0723 -49.16881,-56.1929 -17.79443,-35.1206 -17.79443,-81.4798 z m -67.43152,0 q 0,-60.8756 22.47718,-110.0444 22.47717,-49.6371 61.34394,-81.0115 38.86678,-31.8427 90.37697,-48.7006 51.51018,-17.3261 110.51274,-17.3261 72.1143,0 133.9265,20.6041 61.8122,20.604 103.4886,58.066 l -26.2233,21.0723 q -37.462,-31.8426 -92.7184,-48.7005 -54.7881,-17.3262 -118.4734,-17.3262 -51.9784,0 -97.40106,14.9848 -45.42262,14.5165 -80.07493,42.1447 -34.18403,27.6282 -53.85155,70.7095 -19.66753,42.6129 -19.66753,95.5279 v 203.2311 q 0,52.915 20.1358,94.5915 20.60408,41.2081 56.19293,66.9632 36.05713,25.7551 82.4163,38.8668 46.82744,13.1117 101.61554,13.1117 96.9328,0 162.023,-47.764 65.5584,-48.2323 65.5584,-128.3072 0,-54.3198 -28.0965,-94.5914 -27.6282,-40.2716 -71.1777,-59.4709 -43.5495,-19.1992 -95.9963,-19.1992 -68.8363,0 -132.05334,22.0089 v -34.1841 q 66.02664,-20.1358 132.98994,-20.1358 62.2805,0 114.2589,26.2234 52.4468,26.2234 82.8846,73.5191 30.9061,47.2957 30.9061,105.83 0,62.2805 -35.5888,110.981 -35.1206,48.2323 -94.5915,73.5191 -59.0025,25.2868 -131.1168,25.2868 -61.3439,0 -114.25895,-15.9213 -52.44674,-15.9213 -93.18661,-45.8909 -40.2716,-30.4378 -63.68532,-77.7335 -22.94545,-47.764 -22.94545,-107.7032 z m -67.43151,0 q 0,-73.9873 27.62819,-135.3313 28.09646,-61.8122 75.86045,-102.5521 47.76399,-41.2081 111.91759,-63.68528 64.15359,-22.94545 136.73611,-22.94545 87.5673,0 162.9595,27.6282 75.8605,27.15993 126.9024,76.32873 l -27.1599,20.1358 q -46.3592,-43.0813 -115.1955,-66.495 -68.3681,-23.882 -147.5065,-23.882 -66.02667,0 -123.62443,19.6676 -57.59775,19.1992 -101.14727,55.2563 -43.54952,35.5889 -68.83634,91.3135 -24.81854,55.7247 -24.81854,124.561 v 203.2311 q 0,53.3833 16.85787,99.2742 16.85788,45.4226 46.82745,78.6701 29.96956,33.2475 70.70943,56.6612 41.20815,23.4137 89.90869,35.1206 49.16884,11.2386 103.48864,11.2386 60.4074,0 114.259,-17.3262 54.3198,-17.7944 94.1231,-49.1688 39.8033,-31.3744 63.2171,-77.2653 23.4137,-45.8908 23.4137,-99.7424 0,-53.3833 -22.4772,-99.2742 -22.4772,-45.8909 -59.4708,-75.8604 -36.5254,-30.4379 -83.3529,-47.2958 -46.8274,-16.8578 -96.4645,-16.8578 -71.1777,0 -132.98994,21.0723 v -34.6523 q 64.15364,-18.2627 134.86304,-18.2627 57.5977,0 110.5127,19.6675 53.3833,19.1993 93.6549,53.8516 40.7399,34.184 65.0902,85.6942 24.3502,51.5102 24.3502,111.9176 0,60.8757 -26.2233,113.3224 -25.7551,51.9785 -70.2412,88.0356 -44.4861,35.5888 -104.8935,55.7246 -59.9391,20.1358 -127.3706,20.1358 -75.39217,0 -140.95059,-21.0723 -65.09015,-21.0724 -114.72723,-60.4074 -49.16882,-39.3351 -77.73356,-99.2742 -28.09646,-60.4074 -28.09646,-133.9265 z M 1967.8071,1002.8974 h 35.1206 l -191.056,775.4625 h -35.1205 z m -263.1702,134.8631 -7.9607,33.7157 h -251.9316 v -33.7157 z m 15.9213,-67.4316 -7.9606,33.7158 h -267.853 v -33.7158 z m 14.9848,-67.4315 -6.5558,33.7158 h -284.2426 v -33.7158 z m 23.882,0 h 34.6523 l -191.0559,775.4625 h -34.6524 z m 69.3046,0 h 35.1206 l -191.056,775.4625 h -35.1205 z m 69.7729,0 h 34.6523 l -191.0559,775.4625 h -34.6523 z"
       id="text2"
       style="font-size:959.026px;font-family:Monoton;-inkscape-font-specification:Monoton;stroke-width:79.9191"
       aria-label="567 " />
  </g>
</svg>
